<?xml version="1.0" standalone="no"?>
<!DOCTYPE svg PUBLIC "-//W3C//DTD SVG 20010904//EN"
 "http://www.w3.org/TR/2001/REC-SVG-20010904/DTD/svg10.dtd">
<svg version="1.0" xmlns="http://www.w3.org/2000/svg"
 width="225.000000pt" height="225.000000pt" viewBox="0 0 225.000000 225.000000"
 preserveAspectRatio="xMidYMid meet">
<g transform="translate(0.000000,225.000000) scale(0.050000,-0.050000)"
fill="#fefefe" stroke="none">
<path d="M1924 3480 c-690 -181 -1110 -950 -884 -1620 58 -172 64 -176 165
-121 121 66 119 61 71 182 -101 254 -48 651 120 899 l74 110 10 -515 10 -515
110 66 110 66 5 554 6 553 54 28 c30 15 75 34 100 42 l45 14 0 -532 c0 -292 4
-531 9 -531 5 0 63 32 130 71 l121 71 0 609 0 609 -55 -1 c-30 -1 -121 -18
-201 -39z"/>
<path d="M2325 3177 l5 -342 474 -273 474 -272 -1 -80 c-3 -191 22 -195 -475
91 -525 303 -482 292 -482 130 l0 -129 135 -79 c525 -307 905 -523 922 -523
66 0 153 403 137 636 -27 393 -291 831 -610 1010 l-64 36 0 -140 0 -140 103
-96 c100 -93 203 -237 253 -352 l24 -56 -85 50 c-47 27 -193 112 -325 189
l-240 139 -10 257 -10 257 -60 12 c-33 8 -85 14 -115 16 l-56 2 6 -343z"/>
<path d="M1720 1859 c-578 -337 -545 -306 -446 -416 l76 -83 200 119 c110 66
209 120 220 120 49 1 630 -355 599 -367 -53 -20 -212 -13 -332 15 -109 26
-357 -62 -357 -126 0 -88 582 -167 828 -112 287 64 792 400 792 526 0 20
-1031 627 -1057 623 -7 -1 -242 -135 -523 -299z m875 -175 c355 -204 349 -199
270 -257 -137 -101 -113 -106 -496 115 l-352 204 66 40 c37 22 85 52 107 66
54 36 38 42 405 -168z"/>
</g>
</svg>
